HIERARCHY
ROOT Hips
{
	OFFSET 0.000000 0.000000 0.000000
	CHANNELS 6 Xposition Yposition Zposition Zrotation Xrotation Yrotation
	JOINT RightUpLeg
	{
		OFFSET -10.795800 0.000000 0.000000
		CHANNELS 3 Zrotation Xrotation Yrotation
		JOINT RightLeg
		{
			OFFSET 0.000000 -39.557900 0.000000
			CHANNELS 3 Zrotation Xrotation Yrotation
			JOINT RightFoot
			{
				OFFSET 0.000000 -40.613400 0.000000
				CHANNELS 3 Zrotation Xrotation Yrotation
				JOINT RightToe
				{
					OFFSET 0.000000 -1.003500 12.392200
					CHANNELS 3 Zrotation Xrotation Yrotation
					JOINT RightToeEnd
					{
						OFFSET 0.000000 1.088300 5.767000
						CHANNELS 3 Zrotation Xrotation Yrotation
						End Site
						{
						    OFFSET 0.000000 0.927200 4.913300
						}
					}
				}
			}
		}
	}
	JOINT LeftUpLeg
	{
		OFFSET 10.795800 0.000000 0.000000
		CHANNELS 3 Zrotation Xrotation Yrotation
		JOINT LeftLeg
		{
			OFFSET 0.000000 -39.557900 0.000000
			CHANNELS 3 Zrotation Xrotation Yrotation
			JOINT LeftFoot
			{
				OFFSET 0.000000 -40.613400 0.000000
				CHANNELS 3 Zrotation Xrotation Yrotation
				JOINT LeftToe
				{
					OFFSET 0.000000 -1.003500 12.392200
					CHANNELS 3 Zrotation Xrotation Yrotation
					JOINT LeftToeEnd
					{
						OFFSET 0.000000 1.088300 5.767000
						CHANNELS 3 Zrotation Xrotation Yrotation
						End Site
						{
						    OFFSET 0.000000 0.927200 4.913300
						}
					}
				}
			}
		}
	}
	JOINT Spine
	{
		OFFSET 0.000000 15.108100 0.000000
		CHANNELS 3 Zrotation Xrotation Yrotation
		JOINT Spine1
		{
			OFFSET 0.000000 12.828000 0.000000
			CHANNELS 3 Zrotation Xrotation Yrotation
			JOINT Spine2
			{
				OFFSET 0.000000 11.155500 0.000000
				CHANNELS 3 Zrotation Xrotation Yrotation
				JOINT LeftShoulder
				{
					OFFSET 2.000000 11.155500 0.000000
					CHANNELS 3 Zrotation Xrotation Yrotation
					JOINT LeftArm
					{
						OFFSET 15.139800 0.000000 0.000000
						CHANNELS 3 Zrotation Xrotation Yrotation
						JOINT LeftForeArm
						{
							OFFSET 0.000000 -26.627300 0.000000
							CHANNELS 3 Zrotation Xrotation Yrotation
							JOINT LeftHand
							{
								OFFSET 0.000000 -24.932400 0.000000
								CHANNELS 3 Zrotation Xrotation Yrotation
								JOINT LeftFinger0
								{
									OFFSET 0.000000 -8.640100 0.000000
									CHANNELS 3 Zrotation Xrotation Yrotation
									End Site
									{
									    OFFSET 0.000000 -5.000000 0.000000
									}
								}
							}
						}
					}
				}
				JOINT RightShoulder
				{
					OFFSET -2.000000 11.155500 0.000000
					CHANNELS 3 Zrotation Xrotation Yrotation
					JOINT RightArm
					{
						OFFSET -15.139800 0.000000 0.000000
						CHANNELS 3 Zrotation Xrotation Yrotation
						JOINT RightForeArm
						{
							OFFSET 0.000000 -26.627300 0.000000
							CHANNELS 3 Zrotation Xrotation Yrotation
							JOINT RightHand
							{
								OFFSET 0.000000 -24.932400 0.000000
								CHANNELS 3 Zrotation Xrotation Yrotation
								JOINT RightFinger0
								{
									OFFSET 0.000000 -8.640100 0.000000
									CHANNELS 3 Zrotation Xrotation Yrotation
									End Site
									{
									    OFFSET 0.000000 -5.000000 0.000000
									}
								}
							}
						}
					}
				}
				JOINT Neck
				{
					OFFSET 0.000000 11.155500 0.000000
					CHANNELS 3 Zrotation Xrotation Yrotation
					JOINT Head
					{
						OFFSET 0.000000 10.940000 0.000000
						CHANNELS 3 Zrotation Xrotation Yrotation
						JOINT HeadTip
						{
							OFFSET 0.000000 10.000000 0.000000
							CHANNELS 3 Zrotation Xrotation Yrotation
							End Site
							{
							    OFFSET 0.000000 5.000000 0.000000
							}
						}
					}
				}
			}
		}
	}
}
MOTION
Frames:	14
Frame Time:	0.033332
65.273200 86.144500 -24.671400 -0.314239 -2.081374 -0.514504 4.619426 0.450987 -10.072856 0.000000 6.675561 0.000000 6.322013 2.958767 -18.248740 0.000000 -0.489695 -0.000000 0.000000 0.000000 -0.000000 -3.242494 0.087290 4.571104 0.000000 8.074288 0.000000 -4.927368 6.157717 19.934753 -0.000000 -9.347404 -0.000000 -0.000000 0.000000 -0.000000 -1.054780 0.798807 -1.588663 -0.000000 -1.586476 -0.000000 -0.000000 0.000000 -0.000000 5.178855 -0.000000 4.468002 72.887200 -13.862542 19.159882 0.000000 -6.648471 -0.000000 -14.079819 16.728780 -27.501311 0.000000 -0.000000 -0.000000 -6.086691 -0.000000 -7.592878 -70.109666 -13.858239 -21.789063 -0.000010 -3.778105 -0.000000 11.618755 9.826371 7.256514 0.000000 -0.000000 -0.000000 -0.000000 0.000000 -0.000000 4.130405 8.251916 -4.110352 -0.000000 -0.000000 0.000000 
65.276300 86.143100 -24.670200 -0.313430 -2.090529 -0.505073 4.619384 0.457305 -10.053303 0.000000 6.677237 -0.000000 6.389294 2.919372 -18.299894 -0.000000 -0.404222 -0.000000 -0.000000 -0.000000 0.000000 -3.246822 0.099605 4.555643 -0.000000 8.071299 -0.000000 -4.918761 6.151205 19.945199 0.000000 -9.326101 0.000000 -0.000000 0.000000 -0.000000 -1.058099 0.819162 -1.587524 -0.000000 -1.574414 -0.000000 -0.000000 0.000000 -0.000000 5.259291 0.000000 4.495946 72.893882 -13.897119 19.220618 -0.000000 -6.608874 0.000000 -14.052945 16.734399 -27.546703 -0.000000 0.000000 0.000000 -6.086111 0.000000 -7.616396 -70.193911 -13.835650 -21.811675 -0.000010 -3.725246 -0.000000 11.628747 9.815833 7.247954 0.000000 0.000000 -0.000000 -0.000000 0.000000 -0.000000 4.106338 8.201275 -4.223052 -0.000000 -0.000000 0.000000 
65.278700 86.144300 -24.669700 -0.321006 -2.088869 -0.483718 4.617292 0.448260 -10.048131 -0.000000 6.702349 -0.000000 6.329889 2.945691 -18.266381 0.000000 -0.470194 0.000000 0.000000 -0.000000 -0.000000 -3.237133 0.080118 4.544428 -0.000000 8.103523 -0.000000 -4.920042 6.150361 19.930557 -0.000000 -9.385063 -0.000000 -0.000000 0.000000 0.000000 -1.048761 0.826549 -1.587969 -0.000000 -1.578724 -0.000000 0.000000 -0.000000 -0.000000 5.300216 0.000000 4.486659 72.944879 -13.876228 19.210265 -0.000000 -6.579544 -0.000000 -14.024314 16.736693 -27.588683 0.000000 0.000000 -0.000000 -6.096306 0.000000 -7.599366 -70.308700 -13.766986 -21.951332 -0.000010 -3.604249 -0.000000 11.566513 9.853093 7.456914 0.000000 0.000000 0.000000 0.000000 -0.000000 -0.000000 4.081899 8.221848 -4.315761 -0.000000 0.000000 -0.000000 
65.281400 86.144400 -24.669000 -0.312899 -2.080522 -0.474083 4.612022 0.463103 -9.888612 0.000000 6.669125 -0.000000 6.391066 2.909166 -18.389691 -0.000000 -0.467669 -0.000000 0.000000 0.000000 0.000000 -3.249345 0.089231 4.532370 0.000000 8.063045 -0.000000 -4.967268 6.147564 19.933920 0.000000 -9.359104 -0.000000 0.000000 -0.000000 -0.000000 -1.065039 0.819081 -1.578470 0.000000 -1.551443 -0.000000 -0.000000 -0.000000 0.000000 5.341368 -0.000000 4.512077 72.992663 -13.855228 19.214478 0.000000 -6.621087 0.000000 -13.975231 16.723578 -27.561592 0.000000 0.000000 -0.000000 -6.115176 -0.000000 -7.645191 -70.413458 -13.748871 -21.951573 -0.000009 -3.561890 -0.000000 11.499963 9.864897 7.377625 -0.000000 0.000000 0.000000 -0.000000 -0.000000 0.000000 4.080296 8.177356 -4.362636 0.000000 0.000000 0.000000 
65.279100 86.145400 -24.661700 -0.318008 -2.103274 -0.461684 4.617933 0.476574 -10.037101 -0.000000 6.689762 0.000000 6.333670 2.946618 -18.309337 0.000000 -0.457836 -0.000000 -0.000000 -0.000000 -0.000000 -3.238192 0.119236 4.595635 0.000000 8.055133 -0.000000 -4.953397 6.207980 19.855607 -0.000000 -9.457911 0.000000 -0.000000 0.000000 -0.000000 -1.069997 0.852591 -1.578615 -0.000000 -1.547943 -0.000000 0.000000 0.000000 -0.000000 5.363840 0.000000 4.523796 73.064869 -13.856848 19.221040 -0.000000 -6.576638 -0.000000 -13.889163 16.719006 -27.497030 -0.000000 0.000000 -0.000000 -6.140909 0.000000 -7.670743 -70.471492 -13.708951 -21.814446 -0.000009 -3.566372 -0.000000 11.377788 9.867673 7.280056 -0.000000 -0.000000 -0.000000 0.000000 0.000000 -0.000000 4.083800 8.200051 -4.365417 -0.000000 0.000000 -0.000000 
65.277700 86.147000 -24.663000 -0.325851 -2.082699 -0.468255 4.630449 0.475974 -9.948959 -0.000000 6.648451 -0.000000 6.347612 2.981162 -18.359585 -0.000000 -0.546152 0.000000 -0.000000 0.000000 -0.000000 -3.239092 0.103486 4.452589 -0.000000 8.055593 -0.000000 -4.936537 6.153387 20.009348 0.000000 -9.370243 -0.000000 0.000000 0.000000 -0.000000 -1.068156 0.846583 -1.554155 0.000000 -1.552708 -0.000000 -0.000000 0.000000 -0.000000 5.371946 0.000000 4.540456 73.101789 -13.872260 19.243213 0.000000 -6.545295 0.000000 -13.855075 16.717042 -27.567365 0.000000 0.000000 0.000000 -6.160689 -0.000000 -7.700702 -70.522199 -13.675774 -21.919592 -0.000010 -3.607819 -0.000000 11.386598 9.880304 7.292327 -0.000000 0.000000 -0.000000 -0.000000 0.000000 -0.000000 4.102526 8.200930 -4.357962 0.000000 0.000000 0.000000 
65.279800 86.147500 -24.659100 -0.322386 -2.067674 -0.480278 4.619993 0.439076 -10.058675 0.000000 6.693279 0.000000 6.328444 2.963979 -18.277581 -0.000000 -0.457116 -0.000000 0.000000 -0.000000 0.000000 -3.238461 0.082707 4.543990 0.000000 8.069223 -0.000000 -4.917424 6.170716 19.938244 -0.000000 -9.390301 -0.000000 -0.000000 0.000000 -0.000000 -1.074590 0.832842 -1.541749 0.000000 -1.553829 0.000000 0.000000 -0.000000 -0.000000 5.380428 0.000000 4.561486 73.089489 -13.871246 19.222421 -0.000000 -6.536000 0.000000 -13.910148 16.699775 -27.502140 -0.000000 0.000000 0.000000 -6.188311 -0.000000 -7.691252 -70.523526 -13.639771 -21.809005 -0.000010 -3.662989 -0.000000 11.376961 9.906900 7.236405 -0.000000 0.000000 -0.000000 0.000000 -0.000000 -0.000000 4.061962 8.231277 -4.334405 -0.000000 0.000000 -0.000000 
65.278600 86.145400 -24.656000 -0.324870 -2.052788 -0.501557 4.625362 0.432733 -10.062130 -0.000000 6.678337 -0.000000 6.431147 2.866211 -18.256871 0.000000 -0.262197 -0.000000 -0.000000 -0.000000 0.000000 -3.234746 0.075591 4.576155 -0.000000 8.058796 -0.000000 -4.973430 6.181520 19.913453 0.000000 -9.489547 -0.000000 -0.000000 0.000000 0.000000 -1.081437 0.813731 -1.523945 -0.000000 -1.553683 -0.000000 -0.000000 -0.000000 0.000000 5.374421 0.000000 4.565258 73.056044 -13.822420 19.024359 -0.000000 -6.618605 0.000000 -14.048499 16.723443 -27.349607 -0.000000 0.000000 0.000000 -6.179905 0.000000 -7.669318 -70.542617 -13.654444 -21.811822 -0.000010 -3.636651 -0.000000 11.423638 9.858828 7.202962 -0.000000 -0.000000 -0.000000 -0.000000 -0.000000 0.000000 4.056172 8.268528 -4.340845 -0.000000 0.000000 -0.000000 
65.279100 86.145500 -24.653400 -0.322826 -2.044202 -0.514989 4.620077 0.424515 -10.054226 0.000000 6.679904 -0.000000 6.335834 2.960989 -18.248066 0.000000 -0.428971 -0.000000 0.000000 -0.000000 -0.000000 -3.243900 0.078755 4.503580 -0.000000 8.046079 -0.000000 -4.895437 6.171187 20.009672 0.000000 -9.318420 -0.000000 -0.000000 0.000000 0.000000 -1.088553 0.828089 -1.502005 -0.000000 -1.580401 -0.000000 0.000000 0.000000 0.000000 5.354346 -0.000000 4.557098 73.006196 -13.844809 19.041264 -0.000000 -6.568360 -0.000000 -13.948503 16.715391 -27.338289 -0.000000 0.000000 0.000000 -6.215904 -0.000000 -7.650210 -70.482303 -13.678788 -21.875051 -0.000010 -3.607719 -0.000000 11.472916 9.877123 7.307863 -0.000000 0.000000 -0.000000 0.000000 0.000000 0.000000 4.038177 8.284520 -4.328391 -0.000000 0.000000 -0.000000 
65.279800 86.143200 -24.651900 -0.306897 -2.043330 -0.527629 4.599175 0.415506 -9.942625 -0.000000 6.708877 0.000000 6.391181 2.874565 -18.293191 -0.000000 -0.422285 -0.000000 -0.000000 -0.000000 -0.000000 -3.251644 0.045527 4.605408 -0.000000 8.115548 -0.000000 -4.916635 6.127346 19.908415 -0.000000 -9.337641 -0.000000 -0.000000 0.000000 -0.000000 -1.109388 0.840708 -1.468981 0.000000 -1.595012 -0.000000 0.000000 0.000000 -0.000000 5.336875 0.000000 4.529919 72.961393 -13.886662 19.123615 0.000000 -6.484316 -0.000000 -14.053899 16.767404 -27.462594 -0.000000 0.000000 0.000000 -6.263385 -0.000000 -7.626789 -70.396224 -13.690676 -21.806318 -0.000010 -3.605751 -0.000000 11.532688 9.888907 7.238996 -0.000000 0.000000 -0.000000 0.000000 0.000000 -0.000000 4.023264 8.299882 -4.345176 0.000000 0.000000 0.000000 
65.283700 86.143000 -24.643700 -0.313328 -2.037393 -0.516177 4.601656 0.420042 -9.949572 0.000000 6.700850 -0.000000 6.448414 2.863444 -18.298287 0.000000 -0.429952 -0.000000 0.000000 -0.000000 -0.000000 -3.252375 0.061565 4.559819 0.000000 8.079864 -0.000000 -4.942463 6.157689 19.938335 0.000000 -9.410180 -0.000000 -0.000000 0.000000 -0.000000 -1.102217 0.853189 -1.463888 0.000000 -1.611432 -0.000000 0.000000 0.000000 -0.000000 5.340178 0.000000 4.523307 72.877303 -13.932004 19.171143 0.000000 -6.433318 -0.000000 -14.078218 16.778910 -27.536340 -0.000000 0.000000 -0.000000 -6.276741 0.000000 -7.612593 -70.377008 -13.736963 -21.814790 -0.000010 -3.578956 -0.000000 11.548779 9.871042 7.258867 -0.000000 -0.000000 -0.000000 0.000000 0.000000 -0.000000 4.017642 8.278553 -4.391379 0.000000 -0.000000 -0.000000 
65.286900 86.145200 -24.636900 -0.316680 -2.019296 -0.515550 4.613172 0.404592 -10.030917 -0.000000 6.687521 -0.000000 6.362319 2.914398 -18.288557 -0.000000 -0.388944 -0.000000 -0.000000 -0.000000 0.000000 -3.247140 0.050424 4.609632 0.000000 8.071482 -0.000000 -4.880062 6.173646 19.905703 -0.000000 -9.416807 0.000000 -0.000000 -0.000000 -0.000000 -1.090192 0.846633 -1.436008 -0.000000 -1.615824 0.000000 0.000000 0.000000 -0.000000 5.323456 -0.000000 4.489498 72.830385 -13.950190 19.229372 0.000000 -6.404837 0.000000 -14.145866 16.795407 -27.582520 -0.000000 -0.000000 -0.000000 -6.297239 0.000000 -7.600743 -70.379513 -13.769017 -21.858615 -0.000010 -3.576581 -0.000000 11.543337 9.876087 7.267373 0.000000 -0.000000 -0.000000 0.000000 0.000000 -0.000000 4.000129 8.239415 -4.442908 0.000000 0.000000 -0.000000 
65.290800 86.146300 -24.627600 -0.324430 -2.005074 -0.502043 4.615492 0.404813 -10.017166 0.000000 6.677939 0.000000 6.332821 2.948707 -18.282345 -0.000000 -0.490325 -0.000000 -0.000000 0.000000 -0.000000 -3.246740 0.052656 4.536765 -0.000000 8.051004 0.000000 -4.957342 6.170097 19.958015 -0.000000 -9.498276 -0.000000 0.000000 0.000000 0.000000 -1.084778 0.852523 -1.429649 -0.000000 -1.622467 -0.000000 -0.000000 0.000000 0.000000 5.338527 -0.000000 4.485924 72.799527 -13.967509 19.184734 0.000000 -6.416253 -0.000000 -14.187450 16.814247 -27.616896 -0.000000 0.000000 -0.000000 -6.311654 0.000000 -7.589314 -70.372639 -13.757383 -21.823731 -0.000010 -3.670306 -0.000000 11.522224 9.869335 7.278679 0.000000 0.000000 -0.000000 -0.000000 0.000000 0.000000 3.993880 8.183891 -4.520240 0.000000 0.000000 0.000000 
65.296800 86.146200 -24.624100 -0.312105 -1.954801 -0.503946 4.595257 0.351519 -9.941616 0.000000 6.704300 -0.000000 6.471049 2.901442 -18.300772 -0.000000 -0.541268 -0.000000 0.000000 -0.000000 -0.000000 -3.259943 0.008571 4.582620 0.000000 8.045737 -0.000000 -4.895872 6.142326 19.886513 0.000000 -9.259315 -0.000000 -0.000000 -0.000000 -0.000000 -1.098282 0.822296 -1.406837 0.000000 -1.639573 -0.000000 -0.000000 0.000000 -0.000000 5.335230 0.000000 4.476845 72.818914 -13.977182 19.208603 0.000000 -6.414063 -0.000000 -14.140314 16.753474 -27.512034 -0.000000 0.000000 -0.000000 -6.353764 -0.000000 -7.588140 -70.349014 -13.772615 -21.754985 -0.000010 -3.742953 -0.000000 11.528945 9.921404 7.211892 0.000000 0.000000 -0.000000 -0.000000 0.000000 -0.000000 3.983591 8.169396 -4.611066 0.000000 -0.000000 -0.000000 
